HIERARCHY
ROOT Hips
{
  OFFSET 5.80788e-005 67.184 3.4734
  CHANNELS 6 Xposition Yposition Zposition Zrotation Xrotation Yrotation
  JOINT Chest
  {
    OFFSET 0 8.7983 -4.7612
    CHANNELS 3 Zrotation Xrotation Yrotation
    JOINT Chest2
    {
      OFFSET 0 8.0291 0.4195
      CHANNELS 3 Zrotation Xrotation Yrotation
      JOINT Chest3
      {
        OFFSET 0 9.9351 -2.2114
        CHANNELS 3 Zrotation Xrotation Yrotation
        JOINT Neck
        {
          OFFSET 0 22.3885 -0.4656
          CHANNELS 3 Zrotation Xrotation Yrotation
          JOINT Head
          {
            OFFSET -0.0001 12.643 3.4389
            CHANNELS 3 Zrotation Xrotation Yrotation
            End Site
            {
              OFFSET 0.0001 17.6655 0.5274
            }
          }
        }
        JOINT LeftCollar
        {
          OFFSET 2.2603 21.606 7.4023
          CHANNELS 3 Zrotation Xrotation Yrotation
          JOINT LeftShoulder
          {
            OFFSET 13.5163 -1.1332 -5.0146
            CHANNELS 3 Zrotation Xrotation Yrotation
            JOINT LeftElbow
            {
              OFFSET -0.0995 -28.05 -0.2431
              CHANNELS 3 Zrotation Xrotation Yrotation
              JOINT LeftWrist
              {
                OFFSET 0.0679 -23.3996 -0.1402
                CHANNELS 3 Zrotation Xrotation Yrotation
                JOINT LeftFinger1
                {
                  OFFSET 0.7932 -9.069 2.5189
                  CHANNELS 3 Zrotation Xrotation Yrotation
                  JOINT LeftFinger11
                  {
                    OFFSET -0.8272 -3.3923 0.5977
                    CHANNELS 3 Zrotation Xrotation Yrotation
                    JOINT LeftFinger12
                    {
                      OFFSET -0.5649 -2.3158 0.4082
                      CHANNELS 3 Zrotation Xrotation Yrotation
                      End Site
                      {
                        OFFSET -0.4919 -1.6479 0.2673
                      }
                    }
                  }
                }
                JOINT LeftFinger2
                {
                  OFFSET 0.9159 -9.2044 0.2193
                  CHANNELS 3 Zrotation Xrotation Yrotation
                  JOINT LeftFinger21
                  {
                    OFFSET 0.0117 -4.1944 -0.0248
                    CHANNELS 3 Zrotation Xrotation Yrotation
                    JOINT LeftFinger22
                    {
                      OFFSET 0.0071 -2.3249 -0.0142
                      CHANNELS 3 Zrotation Xrotation Yrotation
                      End Site
                      {
                        OFFSET -0.1475 -2.0882 0.0028
                      }
                    }
                  }
                }
                JOINT LeftFinger3
                {
                  OFFSET 0.6113 -8.7231 -2.0637
                  CHANNELS 3 Zrotation Xrotation Yrotation
                  JOINT LeftFinger31
                  {
                    OFFSET -0.1927 -3.8059 -0.2383
                    CHANNELS 3 Zrotation Xrotation Yrotation
                    JOINT LeftFinger32
                    {
                      OFFSET -0.1091 -2.1688 -0.1362
                      CHANNELS 3 Zrotation Xrotation Yrotation
                      End Site
                      {
                        OFFSET -0.2358 -1.9176 -0.0906
                      }
                    }
                  }
                }
                JOINT LeftFinger4
                {
                  OFFSET -0.6151 -8.0947 -3.5641
                  CHANNELS 3 Zrotation Xrotation Yrotation
                  JOINT LeftFinger41
                  {
                    OFFSET -0.4882 -2.341 -0.6462
                    CHANNELS 3 Zrotation Xrotation Yrotation
                    JOINT LeftFinger42
                    {
                      OFFSET -0.3575 -1.7167 -0.4742
                      CHANNELS 3 Zrotation Xrotation Yrotation
                      End Site
                      {
                        OFFSET -0.4187 -1.5237 -0.3496
                      }
                    }
                  }
                }
                JOINT LeftFinger0
                {
                  OFFSET -1.42 -1.8761 1.4223
                  CHANNELS 3 Zrotation Xrotation Yrotation
                  JOINT LeftFinger01
                  {
                    OFFSET -1.1471 -3.4929 2.6334
                    CHANNELS 3 Zrotation Xrotation Yrotation
                    JOINT LeftFinger02
                    {
                      OFFSET -0.823 -2.3 1.6571
                      CHANNELS 3 Zrotation Xrotation Yrotation
                      End Site
                      {
                        OFFSET -0.5822 -1.6914 1.1582
                      }
                    }
                  }
                }
              }
            }
          }
        }
        JOINT RightCollar
        {
          OFFSET -2.2603 21.606 7.4023
          CHANNELS 3 Zrotation Xrotation Yrotation
          JOINT RightShoulder
          {
            OFFSET -13.5187 -1.1334 -5.0155
            CHANNELS 3 Zrotation Xrotation Yrotation
            JOINT RightElbow
            {
              OFFSET 0.0994 -28.0499 -0.2431
              CHANNELS 3 Zrotation Xrotation Yrotation
              JOINT RightWrist
              {
                OFFSET -0.0679 -23.3996 -0.1402
                CHANNELS 3 Zrotation Xrotation Yrotation
                JOINT RightFinger1
                {
                  OFFSET -0.7932 -9.0691 2.5189
                  CHANNELS 3 Zrotation Xrotation Yrotation
                  JOINT RightFinger11
                  {
                    OFFSET 0.8272 -3.3923 0.5977
                    CHANNELS 3 Zrotation Xrotation Yrotation
                    JOINT RightFinger12
                    {
                      OFFSET 0.565 -2.3158 0.4082
                      CHANNELS 3 Zrotation Xrotation Yrotation
                      End Site
                      {
                        OFFSET 0.4919 -1.6479 0.2673
                      }
                    }
                  }
                }
                JOINT RightFinger2
                {
                  OFFSET -0.916 -9.2044 0.2193
                  CHANNELS 3 Zrotation Xrotation Yrotation
                  JOINT RightFinger21
                  {
                    OFFSET -0.0117 -4.1944 -0.0248
                    CHANNELS 3 Zrotation Xrotation Yrotation
                    JOINT RightFinger22
                    {
                      OFFSET -0.0071 -2.3249 -0.0142
                      CHANNELS 3 Zrotation Xrotation Yrotation
                      End Site
                      {
                        OFFSET 0.1475 -2.0882 0.0028
                      }
                    }
                  }
                }
                JOINT RightFinger3
                {
                  OFFSET -0.6113 -8.7231 -2.0637
                  CHANNELS 3 Zrotation Xrotation Yrotation
                  JOINT RightFinger31
                  {
                    OFFSET 0.1927 -3.8059 -0.2383
                    CHANNELS 3 Zrotation Xrotation Yrotation
                    JOINT RightFinger32
                    {
                      OFFSET 0.1091 -2.1688 -0.1362
                      CHANNELS 3 Zrotation Xrotation Yrotation
                      End Site
                      {
                        OFFSET 0.2358 -1.9176 -0.0906
                      }
                    }
                  }
                }
                JOINT RightFinger4
                {
                  OFFSET 0.6151 -8.0947 -3.564
                  CHANNELS 3 Zrotation Xrotation Yrotation
                  JOINT RightFinger41
                  {
                    OFFSET 0.4882 -2.341 -0.6462
                    CHANNELS 3 Zrotation Xrotation Yrotation
                    JOINT RightFinger42
                    {
                      OFFSET 0.3574 -1.7166 -0.4742
                      CHANNELS 3 Zrotation Xrotation Yrotation
                      End Site
                      {
                        OFFSET 0.4187 -1.5237 -0.3496
                      }
                    }
                  }
                }
                JOINT RightFinger0
                {
                  OFFSET 1.4199 -1.8761 1.4221
                  CHANNELS 3 Zrotation Xrotation Yrotation
                  JOINT RightFinger01
                  {
                    OFFSET 1.1472 -3.4929 2.6336
                    CHANNELS 3 Zrotation Xrotation Yrotation
                    JOINT RightFinger02
                    {
                      OFFSET 0.8229 -2.3 1.6571
                      CHANNELS 3 Zrotation Xrotation Yrotation
                      End Site
                      {
                        OFFSET 0.5822 -1.6914 1.1582
                      }
                    }
                  }
                }
              }
            }
          }
        }
      }
    }
  }
  JOINT RightHip
  {
    OFFSET -9.412 3.9771 -0.7758
    CHANNELS 3 Zrotation Xrotation Yrotation
    JOINT RightKnee
    {
      OFFSET -0.7531 -40.938 0
      CHANNELS 3 Zrotation Xrotation Yrotation
      JOINT RightAnkle
      {
        OFFSET 0 -40.1986 0
        CHANNELS 3 Zrotation Xrotation Yrotation
        JOINT RightToe
        {
          OFFSET 0 -4.4182 9.239
          CHANNELS 3 Zrotation Xrotation Yrotation
          End Site
          {
            OFFSET 0 0 6.1981
          }
        }
      }
    }
  }
  JOINT LeftHip
  {
    OFFSET 9.4119 3.9773 -0.7758
    CHANNELS 3 Zrotation Xrotation Yrotation
    JOINT LeftKnee
    {
      OFFSET 0.7532 -40.9383 0
      CHANNELS 3 Zrotation Xrotation Yrotation
      JOINT LeftAnkle
      {
        OFFSET 0 -40.1986 0
        CHANNELS 3 Zrotation Xrotation Yrotation
        JOINT LeftToe
        {
          OFFSET 0 -4.4182 9.239
          CHANNELS 3 Zrotation Xrotation Yrotation
          End Site
          {
            OFFSET 0 0 6.1981
          }
        }
      }
    }
  }
}
MOTION
Frames:	6
Frame Time:	0.0333333
5.80788e-005 67.184 3.4734 0 0 -0 0 0 -0 0 0 -0 0 0 -0 0 0 -0 0 0 -0 0 0 -12.5014 88.1196 14.2451 10.6914 -0.00160068 -0.00239207 0.000740045 -8.4365e-005 7.00714e-005 -9.52055e-007 9.93923e-017 -1.98785e-016 -1.59028e-015 9.93923e-017 -5.96354e-016 -1.59028e-015 -9.93923e-017 -5.96354e-016 -1.59028e-015 9.93923e-017 -1.98785e-016 -1.59028e-015 -0.0128176 0.00232552 8.52707e-005 9.93923e-017 5.96354e-016 -0 9.93923e-017 -1.98785e-016 -1.59028e-015 -0.0160551 0.00299681 0.000857156 -2.48481e-016 0 3.18055e-015 9.93923e-017 -1.98785e-016 -1.59028e-015 -0.0125865 0.0031206 0.00282719 0 1.98785e-016 -0 9.93923e-017 -1.98785e-016 -1.59028e-015 9.93923e-017 -5.96354e-016 -1.59028e-015 -9.93923e-017 -5.96354e-016 -1.59028e-015 -0.865644 0.16582 7.03859 -88.0329 10.2057 -10.5567 0.0015593 -0.00248883 -0.000788628 7.87605e-005 4.10553e-005 1.24965e-005 -3.97569e-016 -7.95139e-016 3.18055e-015 -1.98785e-016 -3.97569e-016 3.18055e-015 -1.98785e-016 0 3.18055e-015 -3.97569e-016 -7.95139e-016 3.18055e-015 0.0129473 0.00231697 -8.70038e-005 9.93923e-017 -7.95139e-016 1.59028e-015 -3.97569e-016 -7.95139e-016 3.18055e-015 0.0163314 0.00303369 -0.000872333 3.97569e-016 7.95139e-016 -3.18055e-015 -3.97569e-016 -7.95139e-016 3.18055e-015 0.0145763 0.00367772 -0.00326275 9.93923e-017 -3.97569e-016 -0 -3.97569e-016 -7.95139e-016 3.18055e-015 -1.98785e-016 -3.97569e-016 3.18055e-015 -1.98785e-016 0 3.18055e-015 3.42485 1.36937 -0.0640303 0.000136572 0.69354 0.00145564 -3.42573 -2.06297 -0.0607933 -3.19502e-024 0 -1.48106e-024 -3.42498 1.36123 0.0639712 -6.769e-005 0.712612 -0.0012277 3.42582 -2.07388 0.0612819 2.55305e-023 0 -2.31416e-026 
-0.354825 29.6141 -20.6207 -17.1087 -15.5114 130.985 0.0389586 3.57736 0.0752187 0.0734119 7.1548 0.148434 0.0734204 7.1548 0.148428 2.20898e-008 0.467838 6.44494e-006 0.224826 0.0897266 0.00115172 -8.16712 0.468771 -32.922 50.855 -4.95334 19.6961 -4.6908 -33.2316 -1.17003 -5.0417 0.951203 -0.116678 -3.20241e-006 -3.69599e-006 7.16633e-007 -1.47394e-006 -2.49269e-006 1.18041e-006 7.90323e-006 -2.67907e-006 1.93395e-005 -3.20241e-006 -3.69599e-006 7.16633e-007 -0.012883 0.00234069 8.90993e-005 -6.41476e-008 -5.96387e-006 1.26787e-005 -3.20241e-006 -3.69599e-006 7.16633e-007 -0.0160197 0.00299248 0.000866805 6.36111e-015 -4.77083e-015 -0 -3.20241e-006 -3.69599e-006 7.16633e-007 -0.012569 0.00312098 0.00284001 -4.68666e-006 -5.53649e-006 -5.58848e-007 -3.20241e-006 -3.69599e-006 7.16633e-007 -1.47394e-006 -2.49269e-006 1.18041e-006 7.90323e-006 -2.67907e-006 1.93395e-005 7.30102 0.322463 27.4719 -50.2273 -7.85513 -16.4038 4.46987 -33.2498 0.602638 5.02421 0.952828 0.249944 7.55382e-015 1.59028e-015 -0 7.55382e-015 7.95139e-016 -0 1.59028e-015 2.38542e-015 6.36111e-015 7.55382e-015 1.59028e-015 -0 0.012945 0.00231564 -8.70247e-005 -2.78299e-015 3.18055e-015 6.36111e-015 7.55382e-015 1.59028e-015 -0 0.0163511 0.00303908 -0.000877013 -6.75868e-015 -2.38542e-015 -3.18055e-015 7.55382e-015 1.59028e-015 -0 0.0146658 0.00369758 -0.00328038 -3.97569e-015 1.59028e-015 3.18055e-015 7.55382e-015 1.59028e-015 -0 7.55382e-015 7.95139e-016 -0 1.59028e-015 2.38542e-015 6.36111e-015 -41.5992 -49.5207 -59.9798 -123.901 62.163 147.018 20.1631 33.456 -17.4769 0 1.59028e-015 -0 41.6015 -49.5176 59.9792 123.901 62.1617 -147.028 -20.165 33.4561 17.4749 -3.18055e-015 4.77083e-015 7.95139e-016 
-0.24311 13.3964 -28.1068 8.64422 -32.3842 -164.154 0.0491004 4.98464 0.111711 0.0889168 9.96937 0.220379 0.0889171 9.96939 0.220381 1.8656e-006 0.933785 -1.41901e-007 0.450514 0.179631 -0.00544066 -12.1089 1.36899 -42.1983 35.7782 -14.8405 23.1889 -8.60831 -47.6117 -4.01671 -7.59312 1.28403 -0.140801 5.47605e-007 1.67323e-008 1.58636e-006 3.97569e-015 9.54166e-015 -0 -2.73802e-007 -1.81223e-006 -7.9318e-007 5.47605e-007 1.67323e-008 1.58636e-006 -0.012825 0.00232512 7.99296e-005 3.18055e-015 -1.65709e-006 4.77083e-015 5.47605e-007 1.67323e-008 1.58636e-006 -0.0160468 0.00299431 0.000857288 2.73717e-007 1.67291e-008 7.93197e-007 5.47605e-007 1.67323e-008 1.58636e-006 -0.0125978 0.00312382 0.00282856 -1.98785e-015 -1.66544e-006 1.59028e-015 5.47605e-007 1.67323e-008 1.58636e-006 3.97569e-015 9.54166e-015 -0 -2.73802e-007 -1.81223e-006 -7.9318e-007 11.2527 1.07952 36.7114 -34.2578 -16.6744 -18.766 8.08939 -47.6631 3.05357 7.6197 1.24435 0.314273 5.64967e-006 6.57994e-007 -5.13657e-006 7.58669e-006 -3.08141e-006 -7.46883e-007 -3.01847e-006 -1.01877e-006 1.19936e-006 5.64967e-006 6.57994e-007 -5.13657e-006 0.0129592 0.00232025 -9.1762e-005 4.95525e-006 -3.41338e-006 3.19053e-006 5.64967e-006 6.57994e-007 -5.13657e-006 0.0163803 0.00304559 -0.000881489 -1.50911e-006 -7.42312e-006 5.99591e-007 5.64967e-006 6.57994e-007 -5.13657e-006 0.0145419 0.00366679 -0.00325555 3.05944e-006 -6.23294e-006 1.05224e-006 5.64967e-006 6.57994e-007 -5.13657e-006 7.58669e-006 -3.08141e-006 -7.46883e-007 -3.01847e-006 -1.01877e-006 1.19936e-006 -87.356 -43.8396 -93.0596 -139.442 20.0085 158.522 44.1551 49.4057 -31.9783 1.51221e-005 -4.51928e-006 -1.81735e-006 87.3536 -43.8449 93.057 139.439 20.007 -158.527 -44.1569 49.4065 31.9754 2.17182e-006 2.6253e-006 -1.24688e-006 
-0.616536 16.7665 -26.6696 -0.000865537 -31.3804 179.998 0.0438408 4.22242 0.1069 0.0800844 8.44488 0.211415 0.0800847 8.4449 0.211416 -1.0867e-007 1.39815 -7.66203e-008 0.677129 0.269653 -0.0198559 -12.139 2.85671 -40.3333 39.7473 -12.355 22.6771 -6.96686 -43.6725 -2.74686 -7.65434 0.994371 -0.133829 7.95139e-016 -1.59028e-015 6.36111e-015 3.18055e-015 3.18055e-015 9.54166e-015 -7.95139e-016 -1.59028e-015 3.18055e-015 7.95139e-016 -1.59028e-015 6.36111e-015 -0.0128108 0.00232699 8.21841e-005 7.95139e-016 0 -3.18055e-015 7.95139e-016 -1.59028e-015 6.36111e-015 -0.0160319 0.00299627 0.000852738 -7.76187e-006 -2.91968e-007 -3.04573e-007 7.95139e-016 -1.59028e-015 6.36111e-015 -0.0125665 0.00311268 0.00281871 -3.97569e-015 -4.77083e-015 -6.36111e-015 7.95139e-016 -1.59028e-015 6.36111e-015 3.18055e-015 3.18055e-015 9.54166e-015 -7.95139e-016 -1.59028e-015 3.18055e-015 11.2234 2.58511 34.7635 -38.5254 -14.4665 -18.5615 6.53046 -43.6722 1.89081 7.78815 0.862213 0.254398 1.57511e-006 2.82449e-006 -5.74012e-007 2.38542e-015 -1.59028e-015 -3.18055e-015 -1.74163e-008 2.38068e-007 3.25271e-006 1.57511e-006 2.82449e-006 -5.74012e-007 0.0129517 0.0023163 -8.32899e-005 -7.95139e-016 3.18055e-015 -9.54166e-015 1.57511e-006 2.82449e-006 -5.74012e-007 0.0163335 0.00303545 -0.000869914 1.05329e-006 2.40557e-006 4.49753e-006 1.57511e-006 2.82449e-006 -5.74012e-007 0.0145305 0.00365936 -0.00324495 -7.95139e-016 1.88815e-006 3.18055e-015 1.57511e-006 2.82449e-006 -5.74012e-007 2.38542e-015 -1.59028e-015 -3.18055e-015 -1.74163e-008 2.38068e-007 3.25271e-006 -78.489 -46.1285 -88.7023 -137.441 28.5823 158.988 37.6305 45.0598 -28.289 -4.28261e-006 3.87553e-006 2.99025e-007 78.4868 -46.1331 88.699 137.44 28.5812 -158.992 -37.6327 45.0608 28.2881 5.84991e-006 7.2303e-007 8.30848e-007 
-0.616541 16.6783 -26.8361 -0.000874269 -31.6367 179.998 0.0411021 3.85403 0.109609 0.0750505 7.70809 0.217179 0.0750507 7.70811 0.21718 -1.51295e-007 1.8634 -2.82268e-007 0.903678 0.359662 -0.0332789 -12.8592 4.23289 -40.4734 40.299 -12.1587 22.8635 -6.52753 -43.0424 -2.42958 -8.1685 0.817989 -0.133001 -2.79231e-006 1.54306e-006 -3.8424e-006 -8.82781e-031 7.95139e-015 6.36111e-015 -2.38542e-015 0 3.18055e-015 -2.79231e-006 1.54306e-006 -3.8424e-006 -0.0128557 0.00232938 8.54522e-005 8.19208e-007 -5.53006e-007 2.96221e-006 -2.79231e-006 1.54306e-006 -3.8424e-006 -0.0160756 0.00299734 0.000862355 -3.71833e-007 -2.49304e-007 1.78151e-006 -2.79231e-006 1.54306e-006 -3.8424e-006 -0.0126018 0.00312463 0.00283042 -7.95139e-016 -1.59028e-015 -1.27222e-014 -2.79231e-006 1.54306e-006 -3.8424e-006 -8.82781e-031 7.95139e-015 6.36111e-015 -2.38542e-015 0 3.18055e-015 11.9 3.9488 34.8299 -39.1349 -14.2858 -18.8018 6.09091 -43.0078 1.57669 8.39801 0.602263 0.218894 -3.18055e-015 1.59028e-015 -3.18055e-015 2.64834e-031 4.77083e-015 -3.18055e-015 -3.97569e-015 4.77083e-015 -3.18055e-015 -3.18055e-015 1.59028e-015 -3.18055e-015 0.0129465 0.00231339 -9.17452e-005 -1.59028e-015 -1.11319e-014 -3.18055e-015 -3.18055e-015 1.59028e-015 -3.18055e-015 0.0163185 0.00303377 -0.000875549 -2.38542e-015 0 -3.18055e-015 -3.18055e-015 1.59028e-015 -3.18055e-015 0.0145723 0.00367082 -0.00325283 1.59028e-015 -2.70347e-014 3.18055e-015 -3.18055e-015 1.59028e-015 -3.18055e-015 2.64834e-031 4.77083e-015 -3.18055e-015 -3.97569e-015 4.77083e-015 -3.18055e-015 -78.3087 -45.9536 -88.5675 -137.424 28.5902 158.976 37.3636 44.8163 -27.9524 -4.31543e-006 1.1145e-006 2.01622e-006 78.3075 -45.9577 88.5648 137.423 28.5891 -158.98 -37.3659 44.8177 27.9527 -4.77083e-015 2.20233e-006 -9.54166e-015 
-0.616547 16.5903 -27.0025 -0.000883066 -31.8934 179.998 0.0383549 3.4852 0.112267 0.0700483 6.97044 0.222812 0.0700484 6.97045 0.222812 5.84522e-007 2.32918 1.73136e-006 1.13031 0.449617 -0.0470609 -13.5793 5.61434 -40.5967 40.849 -11.9602 23.0477 -6.09662 -42.4108 -2.12195 -8.68282 0.641597 -0.13373 3.18055e-015 -1.11319e-014 3.18055e-015 7.95139e-016 -7.95139e-015 6.36111e-015 3.18055e-015 -1.59028e-015 -3.18055e-015 3.18055e-015 -1.11319e-014 3.18055e-015 -0.0127709 0.00231606 9.09363e-005 0 7.95139e-015 -0 3.18055e-015 -1.11319e-014 3.18055e-015 -0.0160471 0.00299296 0.000862103 3.97569e-015 -1.59028e-015 3.18055e-015 3.18055e-015 -1.11319e-014 3.18055e-015 -0.0125845 0.00312117 0.00283171 -1.59028e-015 3.18055e-015 3.18055e-015 3.18055e-015 -1.11319e-014 3.18055e-015 7.95139e-016 -7.95139e-015 6.36111e-015 3.18055e-015 -1.59028e-015 -3.18055e-015 12.5779 5.3166 34.8804 -39.7433 -14.1025 -19.0399 5.66051 -42.3415 1.27261 9.008 0.341804 0.186176 -3.52677e-006 3.38319e-007 -3.24266e-007 -8.22542e-006 6.60136e-007 -1.84297e-006 -2.38542e-015 -1.59028e-015 -9.54166e-015 -3.52677e-006 3.38319e-007 -3.24266e-007 0.0130037 0.00232198 -9.39073e-005 1.59028e-015 -3.18055e-015 -9.54166e-015 -3.52677e-006 3.38319e-007 -3.24266e-007 0.016338 0.00303717 -0.000877557 5.29669e-031 -3.18055e-015 9.54166e-015 -3.52677e-006 3.38319e-007 -3.24266e-007 0.0146438 0.00369168 -0.00327521 1.59028e-015 2.02789e-006 -3.18055e-015 -3.52677e-006 3.38319e-007 -3.24266e-007 -8.22542e-006 6.60136e-007 -1.84297e-006 -2.38542e-015 -1.59028e-015 -9.54166e-015 -78.1297 -45.7781 -88.4342 -137.407 28.598 158.964 37.0999 44.5718 -27.6188 -2.93845e-006 -1.02455e-006 4.39569e-007 78.1297 -45.7819 88.4322 137.405 28.5969 -158.969 -37.1025 44.5735 27.6204 4.31821e-006 5.71616e-006 -2.01084e-006 
